PathFileType	4	(X/Y/Z)	C:\Users\Basilio\Documents\Thesis Gigler\squatting_fais\c3dfiles\038\SLS_front_pre5\markers_experimental.trc
DataRate	CameraRate	NumFrames	NumMarkers	Units	OrigDataRate	OrigDataStartFrame	OrigNumFrames
200.000000	200.000000	4	61	mm	200.000000	383	1532
Frame#	Time	FHD			LBHD			RBHD			C7			T10			CLAV			LSHO			LUUPA			LMUPA			LDUPA			LLEP			LMEP			LRAD			LUL			LRFIN			RSHO			RUPA1			RMUPA			RDUPA			RLEP			RMEP			RRAD			RUL			RUFIN			LASI			RASI			USACR			LSACR			RSACR			LTHI1			LTHI2			LTHI3			LTHI4			LLFC			LMFC			LTIB1			LTIB2			LTIB3			LTIB4			LLMAL			LMMAL			LHEE			LMT1			LMT2			LMT5			RTHI			RTHI2			RTHI3			RTHI4			RLFC			RMFC			RTIB1			RTIB2			RTIB3			RTIB4			RLMAL			RMMAL			RHEE			RMT1			RMT2			RMT5			
		X1	Y1	Z1	X2	Y2	Z2	X3	Y3	Z3	X4	Y4	Z4	X5	Y5	Z5	X6	Y6	Z6	X7	Y7	Z7	X8	Y8	Z8	X9	Y9	Z9	X10	Y10	Z10	X11	Y11	Z11	X12	Y12	Z12	X13	Y13	Z13	X14	Y14	Z14	X15	Y15	Z15	X16	Y16	Z16	X17	Y17	Z17	X18	Y18	Z18	X19	Y19	Z19	X20	Y20	Z20	X21	Y21	Z21	X22	Y22	Z22	X23	Y23	Z23	X24	Y24	Z24	X25	Y25	Z25	X26	Y26	Z26	X27	Y27	Z27	X28	Y28	Z28	X29	Y29	Z29	X30	Y30	Z30	X31	Y31	Z31	X32	Y32	Z32	X33	Y33	Z33	X34	Y34	Z34	X35	Y35	Z35	X36	Y36	Z36	X37	Y37	Z37	X38	Y38	Z38	X39	Y39	Z39	X40	Y40	Z40	X41	Y41	Z41	X42	Y42	Z42	X43	Y43	Z43	X44	Y44	Z44	X45	Y45	Z45	X46	Y46	Z46	X47	Y47	Z47	X48	Y48	Z48	X49	Y49	Z49	X50	Y50	Z50	X51	Y51	Z51	X52	Y52	Z52	X53	Y53	Z53	X54	Y54	Z54	X55	Y55	Z55	X56	Y56	Z56	X57	Y57	Z57	X58	Y58	Z58	X59	Y59	Z59	X60	Y60	Z60	X61	Y61	Z61	

384	1.915	-268.7759094238282	1775.552734375	-1069.001586914063	-422.0721740722657	1718.4365234375	-1130.518798828125	-413.4514160156251	1703.958740234375	-985.8558349609377	-458.8851013183595	1530.068725585938	-1059.926635742188	-419.2885131835939	1250.969482421875	-1052.6044921875	-314.7544860839844	1524.175048828125	-1069.200317382813	-377.8978271484376	1553.65576171875	-1213.05126953125	-209.4555969238282	1498.513549804688	-1342.720458984375	-182.6286010742188	1532.289184570313	-1314.792358398438	-140.241943359375	1507.525634765625	-1349.843139648438	-78.34738159179689	1511.349975585938	-1349.995361328125	-68.22506713867189	1437.052856445313	-1330.695678710938	203.7984008789063	1500.882690429688	-1236.700439453125	215.1811828613282	1526.072998046875	-1303.947265625	274.1833496093751	1532.440185546875	-1209.68017578125	-365.3955688476563	1544.2275390625	-922.875915527344	-211.0195922851563	1512.150634765625	-797.4197387695315	-173.9692993164063	1524.433837890625	-826.8878173828127	-144.2250671386719	1508.524536132813	-776.5723266601565	-70.87585449218751	1507.986694335938	-763.0761108398439	-63.0861282348633	1429.18505859375	-779.4451293945315	203.6141204833985	1506.64208984375	-854.4066162109377	215.710678100586	1524.02197265625	-786.7097778320315	283.4602355957032	1540.949829101563	-862.4409790039065	-229.2013092041016	1068.070190429688	-1151.82177734375	-255.8626098632813	1095.87255859375	-899.8797607421877	-412.091766357422	1118.565673828125	-1044.88671875	-421.9227294921876	1087.816772460938	-1070.718627929688	-425.7559204101564	1090.783081054688	-1014.59814453125	-269.5351257324219	741.7431640625001	-1182.186889648438	-242.7108917236329	662.3762207031251	-1167.345581054688	-198.2871246337891	667.9140625000001	-1142.941040039063	-273.4848632812501	615.6578979492189	-1147.152954101563	-271.3048095703126	552.9243164062501	-1135.419067382813	-268.7033691406251	549.9741821289064	-1014.305908203125	-252.4271850585938	366.5389099121094	-1053.2314453125	-293.0343017578126	323.2077636718751	-1118.549926757813	-257.6697692871094	318.8686218261719	-1087.170776367188	-278.2967529296876	241.7615966796876	-1055.693969726563	-368.5340576171876	111.4076004028321	-1074.149658203125	-330.4014282226563	127.5080032348633	-1002.558166503906	-417.1400146484376	92.48921203613283	-1017.441589355469	-217.3920288085938	46.30099868774415	-1017.935119628906	-209.7382507324219	48.40542221069337	-1068.953369140625	-256.5412902832032	34.25324249267579	-1112.640991210938	-263.5039978027344	825.2830200195315	-827.789245605469	-217.4518432617188	775.8637695312502	-822.1155395507815	-185.6595611572266	782.7371826171877	-830.9771728515627	-235.1856994628907	691.9871215820314	-833.702819824219	-204.4516601562501	561.4847412109376	-836.1264648437502	-210.023178100586	552.3170776367189	-955.5367431640627	-158.3998565673828	384.7389526367189	-851.4307861328127	-233.6582794189454	307.3338928222657	-807.5972290039065	-187.819091796875	309.7151184082032	-818.984558105469	-177.8402709960938	257.2149963378907	-844.8145751953127	-238.5944061279297	136.1409912109375	-804.4363403320315	-210.5645446777344	142.0103912353516	-885.2741699218752	-297.6307983398438	86.82466125488283	-864.537292480469	-81.5796585083008	81.79253387451173	-861.9666748046877	-83.8287811279297	85.50270080566408	-815.805358886719	-122.3094863891602	63.87277603149415	-770.6782226562502	
385	1.92	-268.9337768554688	1774.948608398438	-1068.94775390625	-422.3150329589845	1718.3515625	-1130.69921875	-413.6584472656251	1703.879638671875	-986.1217041015627	-459.1188354492189	1530.037109375	-1060.192504882813	-419.4065551757814	1250.933837890625	-1052.944091796875	-314.8309936523438	1524.105834960938	-1069.51611328125	-378.0218200683594	1553.688232421875	-1213.241577148438	-209.6079864501954	1498.552856445313	-1342.979248046875	-182.8286285400391	1532.345092773438	-1315.079833984375	-140.8702239990235	1507.93408203125	-1350.102661132813	-78.52952575683595	1511.530517578125	-1350.3203125	-68.35416412353517	1437.182250976563	-1330.962280273438	203.6952362060547	1501.109619140625	-1237.059936523438	215.0520172119141	1526.189208984375	-1304.289794921875	274.1354675292969	1532.744262695313	-1210.065795898438	-365.5769042968751	1544.130737304688	-923.088562011719	-211.1863098144532	1511.99853515625	-797.687927246094	-174.1485137939453	1524.376586914063	-827.2625122070315	-144.3286743164063	1508.4072265625	-777.0446777343752	-70.99901580810548	1507.917846679688	-763.5792236328126	-63.24796676635744	1429.271850585938	-779.955261230469	203.5533447265626	1506.643798828125	-854.6490478515627	215.6336059570313	1523.976318359375	-786.9007568359377	283.4148559570313	1541.374145507813	-862.6272583007815	-229.4714508056641	1067.643798828125	-1152.023193359375	-256.1708068847657	1095.786987304688	-900.104187011719	-412.2100830078126	1118.460327148438	-1045.206787109375	-422.1328735351564	1087.536865234375	-1071.17138671875	-425.6915283203126	1090.741455078125	-1014.959167480469	-269.5524597167969	741.7333984375001	-1182.472534179688	-242.5833282470704	662.3591918945314	-1167.6884765625	-197.9323730468751	667.6259155273439	-1143.191040039063	-273.4809570312501	615.6819458007814	-1147.369140625	-271.2757263183594	552.8842773437501	-1135.656982421875	-268.6206665039063	549.8634033203126	-1014.494323730469	-252.3548431396485	366.4772644042969	-1053.502563476563	-293.0045166015626	323.2116699218751	-1118.764282226563	-257.5177307128907	318.3062438964844	-1087.551635742188	-278.2758483886719	241.6867065429688	-1055.873168945313	-368.5648498535157	111.4133529663086	-1074.242797851563	-330.0500183105469	127.7569198608399	-1002.489135742188	-417.1212463378907	92.47192382812501	-1017.486389160156	-217.3241577148438	46.28889465332032	-1018.02099609375	-209.7716217041016	48.53068161010744	-1068.946166992188	-256.5165100097657	34.23072052001954	-1112.68310546875	-263.3016052246094	825.3525390625002	-828.0501708984377	-217.2484588623047	775.937194824219	-822.2764282226565	-185.4548797607422	782.9450683593752	-831.4500732421877	-234.9094238281251	692.1040649414064	-833.9505615234377	-203.9933624267579	561.5956420898439	-836.3948364257815	-209.189437866211	552.7000122070314	-955.8113403320315	-156.738998413086	385.0682373046876	-851.774108886719	-231.3957061767579	307.1687622070313	-807.9014282226565	-185.6935424804688	309.8410949707032	-819.4607543945315	-175.2207794189453	257.4069824218751	-845.3299560546877	-235.1869506835938	135.9531402587891	-804.8671875000002	-207.4218750000001	141.7917633056641	-885.6248779296877	-294.1630249023438	86.1646194458008	-864.9636840820315	-76.68615722656251	82.91696166992189	-861.6814575195315	-75.42437744140626	86.98945617675783	-814.6050415039065	-118.2821578979492	64.74790191650392	-770.9741821289065	
386	1.925	-269.0997314453126	1774.864990234375	-1069.150390625	-422.5404052734376	1718.35009765625	-1130.86376953125	-413.9140930175782	1703.798706054688	-986.3152465820315	-459.3149719238282	1529.913940429688	-1060.426391601563	-419.7192687988282	1250.857055664063	-1053.314208984375	-315.0977783203126	1524.040649414063	-1069.6826171875	-378.1219482421876	1553.69482421875	-1213.456298828125	-209.7388000488282	1498.644775390625	-1343.23681640625	-183.1637725830078	1532.419067382813	-1315.23193359375	-140.9906768798828	1508.06298828125	-1350.337768554688	-78.67034912109376	1511.593505859375	-1350.567138671875	-68.40530395507814	1437.39111328125	-1331.220336914063	203.6623992919922	1501.387573242188	-1237.352294921875	214.8858032226563	1526.467651367188	-1304.660888671875	274.0823364257813	1533.109741210938	-1210.40869140625	-365.7747497558594	1543.990234375	-923.391296386719	-211.3623809814454	1511.91943359375	-797.9422607421877	-174.3472442626953	1524.316284179688	-827.591247558594	-144.4211120605469	1508.35400390625	-777.3787231445315	-71.03881072998048	1507.828979492188	-763.9990234375001	-63.36681365966798	1429.268676757813	-780.344421386719	203.4534301757813	1506.693115234375	-854.8442382812502	215.5124969482422	1523.948852539063	-787.101257324219	283.3629455566407	1541.009521484375	-862.7908935546877	-229.4799346923829	1067.5791015625	-1152.22802734375	-256.4521484375001	1095.712524414063	-900.2253417968752	-412.3004760742189	1118.66650390625	-1045.52490234375	-422.2553100585939	1087.445190429688	-1071.617553710938	-425.8589172363282	1090.676025390625	-1015.285034179688	-269.5866394042969	741.7001953125001	-1182.7412109375	-242.5378112792969	662.3261108398439	-1168.015869140625	-198.1267242431641	667.8500976562501	-1143.696899414063	-273.4255371093751	615.6057739257814	-1147.692016601563	-271.2336120605469	552.8355102539064	-1136.032470703125	-268.5038452148438	549.8571166992189	-1014.829711914063	-252.3287048339844	366.4277648925782	-1053.710571289063	-293.0205993652344	323.1613769531251	-1118.975830078125	-257.4864807128907	318.1581726074219	-1087.81640625	-278.2326965332032	241.6179351806641	-1056.11962890625	-367.8584289550782	111.3625946044922	-1074.114990234375	-330.3427734375001	127.5889663696289	-1002.768188476563	-417.1129150390626	92.44643402099611	-1017.564331054688	-217.3194732666016	46.28952407836915	-1018.037841796875	-209.7480773925782	48.33876037597658	-1069.017211914063	-256.5222778320313	34.18865585327149	-1112.70166015625	-263.0923461914063	825.4095458984377	-828.2652587890627	-216.878158569336	775.7441406250002	-822.268005371094	-185.26513671875	783.091979980469	-831.748962402344	-234.6370849609376	692.2070922851564	-834.1899414062502	-203.3485260009766	561.8722534179689	-836.6958618164065	-208.7008972167969	552.4492797851564	-956.223083496094	-154.8743133544922	385.4221191406251	-852.0899047851565	-229.2878112792969	306.8951110839844	-808.6765136718752	-183.6320953369141	309.9808349609376	-819.6224365234377	-172.6743927001953	257.6855468750001	-845.3924560546877	-231.5334930419922	135.7577819824219	-805.183288574219	-203.9779205322266	141.9160461425782	-886.2198486328127	-290.1258239746094	85.67977142333986	-865.510925292969	-73.99514007568361	83.94538879394533	-862.3664550781252	-76.42761993408205	87.3923797607422	-816.6903076171877	-114.3728790283203	65.38625335693361	-771.186950683594	
387	1.93	-269.1721496582032	1774.8701171875	-1069.398681640625	-422.7162170410157	1718.385620117188	-1131.017456054688	-414.0870971679689	1703.740966796875	-986.559020996094	-459.4978027343751	1529.75244140625	-1060.642333984375	-419.693817138672	1250.776123046875	-1053.643188476563	-315.2159423828126	1523.968505859375	-1069.914184570313	-378.1816711425782	1553.666748046875	-1213.691284179688	-209.7742767333985	1498.729736328125	-1343.489135742188	-183.0578308105469	1532.5712890625	-1315.63232421875	-141.1424407958985	1508.241943359375	-1350.612426757813	-78.68247985839845	1511.687866210938	-1350.828247070313	-68.48888397216798	1437.50244140625	-1331.491455078125	203.5681457519532	1501.528198242188	-1237.626708984375	214.707015991211	1526.635009765625	-1305.012939453125	273.9089660644532	1533.336059570313	-1210.812744140625	-365.9173278808594	1543.869384765625	-923.671569824219	-211.4854583740235	1511.837158203125	-798.322204589844	-174.5101470947266	1524.212280273438	-827.9238281250002	-144.4850311279297	1508.166381835938	-777.735290527344	-71.14907836914064	1507.748657226563	-764.3851928710939	-63.46384429931642	1429.353149414063	-780.7224121093752	203.3727722167969	1506.798706054688	-855.0449829101565	215.3485717773438	1523.943359375	-787.2915649414065	283.2744140625001	1541.066040039063	-862.9251098632815	-229.3828582763672	1067.876831054688	-1152.325317382813	-256.6914672851563	1095.699340820313	-900.458190917969	-412.3988647460939	1118.593505859375	-1045.901245117188	-422.3710021972657	1087.492553710938	-1071.973999023438	-426.1512451171876	1090.557739257813	-1015.607238769531	-269.5045776367188	741.6359863281251	-1183.088989257813	-242.5728607177735	662.2937622070314	-1168.31005859375	-197.8591308593751	667.6321411132814	-1143.96630859375	-273.4223022460938	615.5258178710939	-1148.04345703125	-271.1803588867188	552.7650756835939	-1136.38037109375	-268.3184509277344	549.7835693359376	-1015.350830078125	-252.2385253906251	366.3311767578126	-1053.98974609375	-292.9099426269532	323.0847473144532	-1119.127563476563	-257.5089721679688	318.1109619140626	-1087.972534179688	-278.1631164550782	241.6168823242188	-1056.335693359375	-367.8524169921876	111.3632507324219	-1074.101318359375	-330.3500671386719	127.5917587280274	-1002.815002441406	-417.1116943359376	92.4834671020508	-1017.525329589844	-217.3608398437501	46.29565811157227	-1018.04541015625	-209.7853393554688	48.32688140869142	-1069.0302734375	-256.5279235839844	34.08473587036134	-1112.746337890625	-262.8676147460938	825.5043945312502	-828.456970214844	-216.6533203125001	776.2489013671877	-822.7189941406252	-185.1636657714844	783.200866699219	-832.1763305664065	-234.2264099121094	692.3102416992189	-834.371276855469	-202.6152496337891	561.8961181640626	-837.019470214844	-208.0025329589844	552.9841918945314	-956.4222412109377	-153.1212463378907	385.9293212890626	-852.3911132812502	-226.9484100341797	307.0874023437501	-808.8902587890627	-181.3877868652344	310.0735473632813	-820.030700683594	-169.8532104492188	257.7414245605469	-845.907897949219	-228.1700592041016	135.7637481689453	-805.7147216796877	-200.2915039062501	141.9770202636719	-886.483337402344	-286.3216552734376	85.16696929931642	-865.9685668945315	-70.26185607910158	84.70105743408205	-862.9117431640627	-66.60478973388673	90.28890228271486	-815.2197875976565	-110.44580078125	66.2277297973633	-771.382507324219	
